<svg width="12" height="12" viewBox="0 0 12 12" fill="none" xmlns="http://www.w3.org/2000/svg">
<path d="M4.19215 12L2.94924 10.7571C3.93912 10.4901 4.82891 10.1176 5.61858 9.63929C6.41939 9.16103 7.17015 8.57155 7.87085 7.87085C8.57155 7.17015 9.15825 6.42217 9.63096 5.62693C10.1148 4.83169 10.4901 3.93913 10.7571 2.94924L12 4.19215C11.8498 5.03189 11.5273 5.87718 11.0324 6.72804C10.543 7.57333 9.91458 8.37969 9.14713 9.14713C8.37969 9.91457 7.57333 10.543 6.72804 11.0324C5.8883 11.5162 5.04301 11.8387 4.19215 12Z" fill="#3B82F6"/>
<path d="M0.672424 8.84772V0.589844H4.648C5.41873 0.589844 6.0833 0.715678 6.64169 0.967346C7.20794 1.21902 7.64443 1.58079 7.95115 2.05267C8.25787 2.51668 8.41123 3.06721 8.41123 3.70424C8.41123 4.34128 8.25787 4.8918 7.95115 5.35582C7.64443 5.81983 7.20794 6.1816 6.64169 6.44114C6.0833 6.6928 5.41873 6.81864 4.648 6.81864H2.21783L3.45651 5.62715V8.84772H0.672424ZM3.45651 5.93387L2.21783 4.67159H4.47105C4.85641 4.67159 5.13954 4.58508 5.32043 4.41206C5.50918 4.23904 5.60355 4.0031 5.60355 3.70424C5.60355 3.40539 5.50918 3.16945 5.32043 2.99642C5.13954 2.8234 4.85641 2.73689 4.47105 2.73689H2.21783L3.45651 1.47462V5.93387Z" fill="#3B82F6"/>
</svg>
